{
  "accessors": [
    {
      "bufferView": 1,
      "componentType": 5126,
      "count": 1063,
      "max": [
        0.6080899834632874,
        16.624759674072266,
        4.457129955291748
      ],
      "min": [
        -0.6080899834632874,
        0.0,
        -0.17552000284194946
      ],
      "type": "VEC3"
    },
    {
      "bufferView": 1,
      "byteOffset": 12756,
      "componentType": 5126,
      "count": 1063,
      "max": [
        0.9994744062423706,
        1.0,
        1.0
      ],
      "min": [
        -0.9994744062423706,
        -1.0,
        -1.0
      ],
      "type": "VEC3"
    },
    {
      "bufferView": 0,
      "componentType": 5125,
      "count": 1734,
      "type": "SCALAR"
    },
    {
      "bufferView": 1,
      "byteOffset": 25512,
      "componentType": 5126,
      "count": 192,
      "max": [
        0.42085000872612,
        16.246660232543945,
        4.296440124511719
      ],
      "min": [
        -0.421889990568161,
        15.988260269165039,
        3.0536999702453613
      ],
      "type": "VEC3"
    },
    {
      "bufferView": 1,
      "byteOffset": 27816,
      "componentType": 5126,
      "count": 192,
      "max": [
        0.8947571516036987,
        -0.4081489145755768,
        0.892196774482727
      ],
      "min": [
        -0.8943066000938416,
        -0.9997828602790833,
        -0.718505322933197
      ],
      "type": "VEC3"
    },
    {
      "bufferView": 0,
      "byteOffset": 6936,
      "componentType": 5125,
      "count": 288,
      "type": "SCALAR"
    }
  ],
  "asset": {
    "extras": {
      "author": "Algirdas Lalys (https://sketchfab.com/alalys)",
      "license": "CC-BY-4.0 (http://creativecommons.org/licenses/by/4.0/)",
      "source": "https://sketchfab.com/3d-models/street-light-b7dfecfd2dd34a5d8a67bf3e48666105",
      "title": "Street Light"
    },
    "generator": "Sketchfab-12.68.0",
    "version": "2.0"
  },
  "bufferViews": [
    {
      "buffer": 0,
      "byteLength": 8088,
      "name": "floatBufferViews",
      "target": 34963
    },
    {
      "buffer": 0,
      "byteLength": 30120,
      "byteOffset": 8088,
      "byteStride": 12,
      "name": "floatBufferViews",
      "target": 34962
    }
  ],
  "buffers": [
    {
      "byteLength": 38208,
      "uri": "scene.bin"
    }
  ],
  "materials": [
    {
      "doubleSided": true,
      "name": "Street_Light_Mat",
      "pbrMetallicRoughness": {
        "baseColorFactor": [
          0.566834568977356,
          0.566834568977356,
          0.566834568977356,
          1.0
        ],
        "metallicFactor": 0.0,
        "roughnessFactor": 0.6
      }
    },
    {
      "doubleSided": true,
      "name": "Glass",
      "pbrMetallicRoughness": {
        "baseColorFactor": [
          0.051531367003917694,
          0.04667878523468971,
          0.8000000715255737,
          1.0
        ],
        "metallicFactor": 0.0,
        "roughnessFactor": 0.6
      }
    }
  ],
  "meshes": [
    {
      "name": "Cube_0",
      "primitives": [
        {
          "attributes": {
            "NORMAL": 1,
            "POSITION": 0
          },
          "indices": 2,
          "material": 0,
          "mode": 4
        }
      ]
    },
    {
      "name": "Cube_1",
      "primitives": [
        {
          "attributes": {
            "NORMAL": 4,
            "POSITION": 3
          },
          "indices": 5,
          "material": 1,
          "mode": 4
        }
      ]
    }
  ],
  "nodes": [
    {
      "children": [
        1
      ],
      "matrix": [
        1.0,
        0.0,
        0.0,
        0.0,
        0.0,
        2.220446049250313e-16,
        -1.0,
        0.0,
        0.0,
        1.0,
        2.220446049250313e-16,
        0.0,
        0.0,
        0.0,
        0.0,
        1.0
      ],
      "name": "Sketchfab_model"
    },
    {
      "children": [
        2
      ],
      "name": "Root"
    },
    {
      "children": [
        3,
        4
      ],
      "matrix": [
        0.4,
        0.0,
        0.0,
        0.0,
        0.0,
        0.0,
        0.4,
        0.0,
        0.0,
        -0.50318,
        0.0,
        0.0,
        0.0,
        0.0,
        0.0,
        1.0
      ],
      "name": "Cube"
    },
    {
      "mesh": 0,
      "name": "Cube_0"
    },
    {
      "mesh": 1,
      "name": "Cube_1"
    }
  ],
  "scene": 0,
  "scenes": [
    {
      "name": "Sketchfab_Scene",
      "nodes": [
        0
      ]
    }
  ]
}
